<svg width="27" height="27" viewBox="0 0 27 27" fill="none" xmlns="http://www.w3.org/2000/svg">
    <path d="M7.04171 3.16665C7.04171 2.4815 7.31388 1.82442 7.79835 1.33995C8.28282 0.855485 8.9399 0.583313 9.62504 0.583313H17.375C18.0602 0.583313 18.7173 0.855485 19.2017 1.33995C19.6862 1.82442 19.9584 2.4815 19.9584 3.16665V5.74998H25.125C25.4676 5.74998 25.7962 5.88607 26.0384 6.1283C26.2806 6.37054 26.4167 6.69908 26.4167 7.04165C26.4167 7.38422 26.2806 7.71276 26.0384 7.95499C25.7962 8.19723 25.4676 8.33331 25.125 8.33331H23.7442L22.6244 24.0167C22.578 24.6685 22.2863 25.2784 21.8082 25.7238C21.33 26.1691 20.7009 26.4167 20.0475 26.4166H6.95129C6.29789 26.4167 5.66875 26.1691 5.1906 25.7238C4.71245 25.2784 4.42081 24.6685 4.37442 24.0167L3.25712 8.33331H1.87504C1.53247 8.33331 1.20393 8.19723 0.961694 7.95499C0.71946 7.71276 0.583374 7.38422 0.583374 7.04165C0.583374 6.69908 0.71946 6.37054 0.961694 6.1283C1.20393 5.88607 1.53247 5.74998 1.87504 5.74998H7.04171V3.16665ZM9.62504 5.74998H17.375V3.16665H9.62504V5.74998ZM5.84562 8.33331L6.95258 23.8333H20.0488L21.1558 8.33331H5.84562ZM10.9167 10.9166C11.2593 10.9166 11.5878 11.0527 11.8301 11.295C12.0723 11.5372 12.2084 11.8657 12.2084 12.2083V19.9583C12.2084 20.3009 12.0723 20.6294 11.8301 20.8717C11.5878 21.1139 11.2593 21.25 10.9167 21.25C10.5741 21.25 10.2456 21.1139 10.0034 20.8717C9.76113 20.6294 9.62504 20.3009 9.62504 19.9583V12.2083C9.62504 11.8657 9.76113 11.5372 10.0034 11.295C10.2456 11.0527 10.5741 10.9166 10.9167 10.9166ZM16.0834 10.9166C16.4259 10.9166 16.7545 11.0527 16.9967 11.295C17.239 11.5372 17.375 11.8657 17.375 12.2083V19.9583C17.375 20.3009 17.239 20.6294 16.9967 20.8717C16.7545 21.1139 16.4259 21.25 16.0834 21.25C15.7408 21.25 15.4123 21.1139 15.17 20.8717C14.9278 20.6294 14.7917 20.3009 14.7917 19.9583V12.2083C14.7917 11.8657 14.9278 11.5372 15.17 11.295C15.4123 11.0527 15.7408 10.9166 16.0834 10.9166Z" fill="#E30000"/>
</svg>
