<svg width="190" height="25" viewBox="0 0 190 25" fill="none" xmlns="http://www.w3.org/2000/svg">
<path d="M0.705 1.99H15.058V7.229H6.75V11.042H13.973V16.25H6.75V24H0.705V1.99ZM17.0757 7.322H22.8727V16.529C22.8727 17.955 23.4927 19.226 25.0737 19.226C26.6547 19.226 27.2127 17.924 27.2127 16.529V7.322H33.0097V16.405C33.0097 21.148 29.8787 24.465 24.9497 24.465C20.1447 24.465 17.0757 21.303 17.0757 16.405V7.322ZM35.0096 7.322H37.6756V1.587H43.4726V7.322H47.5026V11.755H43.4726V17.707C43.4726 19.04 44.0616 19.722 45.2086 19.722C45.9216 19.722 46.6346 19.536 47.2856 19.257L48.0606 23.38C46.8516 24.093 45.4256 24.465 43.7206 24.465C39.7216 24.465 37.6756 22.202 37.6756 18.265V11.755H35.0096V7.322ZM50.0737 7.322H55.8707V16.529C55.8707 17.955 56.4907 19.226 58.0717 19.226C59.6527 19.226 60.2107 17.924 60.2107 16.529V7.322H66.0077V16.405C66.0077 21.148 62.8767 24.465 57.9477 24.465C53.1427 24.465 50.0737 21.303 50.0737 16.405V7.322ZM68.7827 7.322H74.1457L74.3317 10.019C75.0447 8.283 76.4087 7.105 78.3617 7.105C78.8887 7.105 79.3847 7.198 79.7877 7.384L79.2297 13.181C78.7957 13.026 78.3307 12.964 77.8037 12.964C75.6647 12.964 74.5797 14.08 74.5797 16.343V24H68.7827V7.322ZM80.8812 15.599C80.8812 10.763 84.3842 6.857 89.4062 6.857C94.8002 6.857 97.9312 10.701 97.9312 16.064V17.118H86.8022C87.1122 18.637 88.0112 19.846 89.6852 19.846C90.7702 19.846 91.6692 19.381 92.3202 18.42L97.6212 19.598C96.3192 22.822 92.8472 24.465 89.4992 24.465C84.4152 24.465 80.8812 20.745 80.8812 15.599ZM89.4062 10.98C87.7942 10.98 86.9882 12.189 86.7402 13.646H91.9482C91.7002 12.22 91.0182 10.98 89.4062 10.98ZM117.418 24.62C110.908 24.62 106.072 19.784 106.072 13.15C106.072 6.702 110.753 1.37 117.449 1.37C122.13 1.37 126.408 4.036 127.586 8.779L121.479 10.05C120.735 8.252 119.309 7.074 117.325 7.074C114.132 7.074 112.489 10.143 112.489 13.057C112.489 16.002 114.101 18.916 117.387 18.916C119.371 18.916 120.797 17.924 121.696 15.94L127.803 17.211C126.625 22.016 122.223 24.62 117.418 24.62ZM129.349 15.692C129.349 10.577 133.317 6.857 138.463 6.857C143.423 6.857 147.453 10.484 147.453 15.63C147.453 20.745 143.485 24.465 138.339 24.465C133.41 24.465 129.349 20.807 129.349 15.692ZM138.401 12.096C136.479 12.096 135.239 13.801 135.239 15.661C135.239 17.49 136.448 19.226 138.401 19.226C140.354 19.226 141.563 17.521 141.563 15.661C141.563 13.832 140.416 12.096 138.401 12.096ZM149.764 24V0.749998H155.561V24H149.764ZM157.897 15.692C157.897 10.577 161.865 6.857 167.011 6.857C171.971 6.857 176.001 10.484 176.001 15.63C176.001 20.745 172.033 24.465 166.887 24.465C161.958 24.465 157.897 20.807 157.897 15.692ZM166.949 12.096C165.027 12.096 163.787 13.801 163.787 15.661C163.787 17.49 164.996 19.226 166.949 19.226C168.902 19.226 170.111 17.521 170.111 15.661C170.111 13.832 168.964 12.096 166.949 12.096ZM178.312 7.322H183.675L183.861 10.019C184.574 8.283 185.938 7.105 187.891 7.105C188.418 7.105 188.914 7.198 189.317 7.384L188.759 13.181C188.325 13.026 187.86 12.964 187.333 12.964C185.194 12.964 184.109 14.08 184.109 16.343V24H178.312V7.322Z" fill="url(#paint0_linear_38_2)"/>
<defs>
<linearGradient id="paint0_linear_38_2" x1="-1" y1="13" x2="190" y2="13" gradientUnits="userSpaceOnUse">
<stop stop-color="#FF0000"/>
<stop offset="0.25" stop-color="#DCA100"/>
<stop offset="0.5" stop-color="#009E18"/>
<stop offset="0.75" stop-color="#003DAF"/>
<stop offset="1" stop-color="#F200FF"/>
</linearGradient>
</defs>
</svg>
