<svg width="21" height="21" viewBox="0 0 21 21" fill="none" xmlns="http://www.w3.org/2000/svg">
<path d="M16.8686 10.5C16.4079 10.5 15.9662 10.317 15.6404 9.99129C15.3147 9.66557 15.1317 9.2238 15.1317 8.76316C15.1317 8.30252 15.3147 7.86075 15.6404 7.53503C15.9662 7.20931 16.4079 7.02632 16.8686 7.02632C17.3292 7.02632 17.771 7.20931 18.0967 7.53503C18.4224 7.86075 18.6054 8.30252 18.6054 8.76316C18.6054 9.2238 18.4224 9.66557 18.0967 9.99129C17.771 10.317 17.3292 10.5 16.8686 10.5ZM13.3949 5.86842C12.9343 5.86842 12.4925 5.68543 12.1668 5.35971C11.841 5.03399 11.658 4.59222 11.658 4.13158C11.658 3.67094 11.841 3.22917 12.1668 2.90345C12.4925 2.57773 12.9343 2.39474 13.3949 2.39474C13.8555 2.39474 14.2973 2.57773 14.623 2.90345C14.9487 3.22917 15.1317 3.67094 15.1317 4.13158C15.1317 4.59222 14.9487 5.03399 14.623 5.35971C14.2973 5.68543 13.8555 5.86842 13.3949 5.86842ZM7.60542 5.86842C7.14478 5.86842 6.70301 5.68543 6.37728 5.35971C6.05156 5.03399 5.86858 4.59222 5.86858 4.13158C5.86858 3.67094 6.05156 3.22917 6.37728 2.90345C6.70301 2.57773 7.14478 2.39474 7.60542 2.39474C8.06606 2.39474 8.50783 2.57773 8.83355 2.90345C9.15927 3.22917 9.34226 3.67094 9.34226 4.13158C9.34226 4.59222 9.15927 5.03399 8.83355 5.35971C8.50783 5.68543 8.06606 5.86842 7.60542 5.86842ZM4.13173 10.5C3.67109 10.5 3.22932 10.317 2.9036 9.99129C2.57788 9.66557 2.39489 9.2238 2.39489 8.76316C2.39489 8.30252 2.57788 7.86075 2.9036 7.53503C3.22932 7.20931 3.67109 7.02632 4.13173 7.02632C4.59237 7.02632 5.03414 7.20931 5.35987 7.53503C5.68559 7.86075 5.86858 8.30252 5.86858 8.76316C5.86858 9.2238 5.68559 9.66557 5.35987 9.99129C5.03414 10.317 4.59237 10.5 4.13173 10.5ZM10.5002 0.078949C7.73632 0.078949 5.08568 1.17688 3.13136 3.1312C1.17703 5.08553 0.0791016 7.73617 0.0791016 10.5C0.0791016 13.2638 1.17703 15.9145 3.13136 17.8688C5.08568 19.8231 7.73632 20.9211 10.5002 20.9211C10.9608 20.9211 11.4026 20.7381 11.7283 20.4123C12.054 20.0866 12.237 19.6449 12.237 19.1842C12.237 18.7326 12.0633 18.3274 11.7854 18.0263C11.5191 17.7137 11.3454 17.3084 11.3454 16.8684C11.3454 16.4078 11.5284 15.966 11.8541 15.6403C12.1798 15.3146 12.6216 15.1316 13.0823 15.1316H15.1317C16.6672 15.1316 18.1398 14.5216 19.2255 13.4359C20.3112 12.3501 20.9212 10.8776 20.9212 9.34211C20.9212 4.22421 16.2549 0.078949 10.5002 0.078949Z" fill="#005A80"/>
</svg>
