<svg width="50" height="50" viewBox="0 0 50 50" style="color: #787878" fill="none" xmlns="http://www.w3.org/2000/svg">
<path d="M16.0301 14.7625C14.6201 16.1709 13.9365 19.212 15.3892 22.5734C16.9334 26.144 16.0712 27.7797 14.8277 29.1606C13.639 30.4773 3.50879 39.2297 1.50372 41.2347C-0.501242 43.2412 -0.501242 46.4913 1.50372 48.4963C3.50869 50.5012 6.75886 50.5012 8.76383 48.4963C10.7688 46.4913 19.4433 36.6235 20.8381 35.1724C22.1259 33.8327 23.8562 33.0667 27.4252 34.6109C30.7883 36.0635 33.8278 35.3784 35.2361 33.9685L37.1587 32.049L17.9496 12.8414L16.0301 14.7625ZM6.48269 46.2137C5.73807 46.9583 4.52958 46.9583 3.78496 46.2137C3.04033 45.469 3.04033 44.2621 3.78496 43.5175C4.52958 42.7729 5.73807 42.7729 6.48269 43.5175C7.22732 44.2621 7.22732 45.469 6.48269 46.2137Z" fill="currentColor"/>
<path d="M48.8682 15.5895L40.0364 6.75624C39.7022 6.42207 39.1804 6.35947 38.7775 6.60673L34.2121 9.38386L36.9267 4.72999C37.1616 4.32716 37.096 3.81603 36.7664 3.48644L34.2824 1.00218C33.5851 0.304826 32.6223 -0.0567926 31.6396 0.00726946C30.6554 0.0713315 29.7475 0.556582 29.1478 1.33783L20.5114 12.5866L37.2853 29.3605L48.534 20.724C49.3137 20.1243 49.7989 19.2149 49.8646 18.2322C49.9287 17.2482 49.5655 16.2853 48.8682 15.5895Z" fill="currentColor"/>
</svg>
