<svg width="50" height="50" viewBox="0 0 50 50" style="color: #787878" fill="none" xmlns="http://www.w3.org/2000/svg">
    <path d="M49.3315 0.640546C48.1371 -0.553204 46.0754 -0.0200989 43.8911 1.75519C41.9105 3.326 31.5388 11.7171 26.1113 16.9402C22.3282 20.2323 19.3843 23.4414 18.7366 25.816L24.1552 31.2354C26.5305 30.5883 29.7396 27.6445 33.0318 23.8607C38.2554 18.4331 46.6466 8.06145 48.2168 6.08156C49.992 3.8967 50.5259 1.83566 49.3315 0.640546Z" fill="currentColor"/>
    <path d="M14.7571 29.6735L20.3265 35.2436L23.1122 32.4578L17.5421 26.8878L14.7571 29.6735Z" fill="currentColor"/>
    <path d="M0.471387 39.4596C-0.157129 40.0889 -0.157129 41.1081 0.471387 41.7373L8.2626 49.5285C8.8919 50.1571 9.91104 50.1571 10.5397 49.5285L14.8497 45.2178L4.78154 35.1502L0.471387 39.4596Z" fill="currentColor"/>
    <path d="M13.686 30.744C12.0798 32.3508 10.3119 29.619 6.93779 32.9938L5.91992 34.011L15.9883 44.08L17.0068 43.0621C20.3802 39.6881 17.649 37.9202 19.2561 36.314L13.686 30.744Z" fill="currentColor"/>
</svg>
