<svg width="39" height="50" viewBox="0 0 39 50" style="color: currentColor" fill="none" xmlns="http://www.w3.org/2000/svg">
    <path d="M38.0212 0.473666C36.7335 -0.568131 34.7788 0.164779 32.8309 2.12093C31.0625 3.85687 21.8165 13.1082 17.0626 18.7619C13.7135 22.3625 11.1747 25.7955 10.7883 28.1783C10.5437 29.685 10.8755 30.9276 11.4595 31.3993L13.34 32.9205C13.924 33.3929 15.209 33.4567 16.631 32.9026C18.8803 32.0256 21.705 28.8247 24.5249 24.7961C29.0578 18.9644 36.1689 7.98606 37.4961 5.89339C39.002 3.57972 39.3089 1.51488 38.0212 0.473666Z" fill="currentColor"/>
    <path d="M8.99616 31.4644C6.6944 31.0738 4.25544 31.9029 2.68298 33.8472C-1.08724 38.5091 -0.669561 46.3156 2.59928 50C2.59928 50 2.90192 49.5282 3.9777 48.6348C6.96041 46.1535 10.5637 45.3327 13.0636 42.2412C14.636 40.2962 14.9353 37.7374 14.0722 35.5694L8.99616 31.4644Z" fill="currentColor"/>
</svg>
