<svg width="41" height="50" viewBox="0 0 41 50" style="color: #787878" fill="none" xmlns="http://www.w3.org/2000/svg">
    <path d="M32.2299 6.97861H31.5244C31.2724 5.00262 30.5416 3.42684 29.3824 2.25125C27.8705 0.750497 25.6781 0.00012207 22.8558 0.00012207H8.79455C3.12471 0.00012207 0 3.10167 0 8.72949C0 11.5309 0.755978 13.707 2.26794 15.2077C3.77989 16.7085 5.97221 17.4589 8.79455 17.4589H22.8558C27.8957 17.4589 30.9196 14.9826 31.5244 10.4804H32.2299C37.4966 10.4804 37.4966 11.1807 37.4966 15.708V20.3603C37.4966 24.8876 37.4966 25.5879 32.2299 25.5879H22.8558C15.3212 25.5879 14.2376 29.1397 14.0864 32.5914C11.8185 32.7415 9.37414 33.792 9.37414 37.794V44.7725C9.37414 49.0997 12.2469 50.0001 14.6408 50.0001H16.9844C19.3783 50.0001 22.251 49.0997 22.251 44.7725V37.794C22.251 33.842 19.8571 32.7415 17.5892 32.5914C17.7152 30.0652 18.4459 29.0647 22.8306 29.0647H32.2047C40.3945 29.0647 40.9993 25.763 40.9993 20.3353V15.708C41.0245 10.2803 40.4197 6.97861 32.2299 6.97861Z" fill="currentColor"/>
</svg>
